<?xml version="1.0" encoding="UTF-8" standalone="no"?>
<svg
   xmlns:dc="http://purl.org/dc/elements/1.1/"
   xmlns:cc="http://creativecommons.org/ns#"
   xmlns:rdf="http://www.w3.org/1999/02/22-rdf-syntax-ns#"
   xmlns:svg="http://www.w3.org/2000/svg"
   xmlns="http://www.w3.org/2000/svg"
   xmlns:sodipodi="http://sodipodi.sourceforge.net/DTD/sodipodi-0.dtd"
   xmlns:inkscape="http://www.inkscape.org/namespaces/inkscape"
   id="Capa_1"
   data-name="Capa 1"
   viewBox="0 0 319.99999 308.99999"
   version="1.1"
   sodipodi:docname="60703b73e31720077d4e44de_barcelona-dragons-thumb-tiny.svg"
   width="320"
   height="309"
   inkscape:version="1.0.1 (3bc2e813f5, 2020-09-07)">
  <metadata
     id="metadata852">
    <rdf:RDF>
      <cc:Work
         rdf:about="">
        <dc:format>image/svg+xml</dc:format>
        <dc:type
           rdf:resource="http://purl.org/dc/dcmitype/StillImage" />
        <dc:title></dc:title>
      </cc:Work>
    </rdf:RDF>
  </metadata>
  <sodipodi:namedview
     pagecolor="#ffffff"
     bordercolor="#666666"
     borderopacity="1"
     objecttolerance="10"
     gridtolerance="10"
     guidetolerance="10"
     inkscape:pageopacity="0"
     inkscape:pageshadow="2"
     inkscape:window-width="3840"
     inkscape:window-height="2107"
     id="namedview850"
     showgrid="false"
     inkscape:zoom="1.3525718"
     inkscape:cx="708.65"
     inkscape:cy="708.65"
     inkscape:window-x="3832"
     inkscape:window-y="-8"
     inkscape:window-maximized="1"
     inkscape:current-layer="Capa_1" />
  <defs
     id="defs835">
    <style
       id="style833">.cls-6{fill:#00452e}.cls-2,.cls-4{fill-rule:evenodd}.cls-2{fill:#a5262a}.cls-4{fill:#fff}</style>
  </defs>
  <g
     id="g2226"
     transform="matrix(0.22556391,0,0,0.22556391,0.1495185,-5.3458648)">
    <path
       d="m 1361,543 c -45.1,-84.9 -96.7,-62.9 -133.6,-45.4 -45.5,-29.9 -90,-78.7 -125,-60 -14.6,-7.1 -120.3,-99.3 -120.3,-99.3 0,0 -0.7,12.1 -4.4,18.9 C 932.9,337.9 769,228.9 751.1,214.1 c 2.6,11.7 4.5,19.1 10.7,35.8 C 573.5,107.8 452.1,64.4 405.9,43.9 425.5,62.5 444.2,94.5 467,133.3 433.6,114.6 196.4,32 135.4,23.7 171.4,55.1 300.6,186.9 403.6,294.1 375,289 291,293.7 215.8,299.5 c 34,47.5 67.6,80.2 98.4,102.8 -100.5,21.2 -217,50.9 -314.2,81.3 83.3,13.6 327.6,87.2 489.5,154.4 -30.9,99.6 34.2,161.2 153.6,186.9 44.8,2.9 109.7,13 176.5,11.4 -10.2,18.8 -16.8,27.6 -62.5,55.6 65.5,-5.5 165.8,-53.2 207,-56.2 136.8,-10.8 265.5,-37 283.8,37.7 130.2,-89.8 138.3,-122.7 155.4,-150.9 32.5,-121.1 4.5,-146.1 -42.3,-179.5 z"
       fill-rule="evenodd"
       fill="#00452e"
       id="path837" />
    <path
       class="cls-2"
       d="m 397.7,468.8 c 12.4,3.1 30.3,-6.9 55.2,-14.7 -12,-1 -38.7,-2.1 -74,-15.8 -49.3,8.1 -123.5,23.3 -200.4,44.3 121.2,29.9 222.9,65.2 284.9,89.2 -32.5,-26.7 -61.6,-62.5 -65.7,-103 z M 799.4,300.7 c 0,0 -199.6,-124.8 -242.2,-140.6 14.8,23.2 23.2,34.5 27.1,46.5 28.5,8.5 215.1,94.1 215.1,94.1 z M 328.1,138.2 c 38.9,12.6 177.7,66.7 248.2,109.4 16.1,22.3 25,32.2 34.7,47.7 C 577.6,282 544.4,274.8 534.9,272.3 435.1,211.2 359.5,159.1 328.1,138.2 Z"
       id="path839" />
    <path
       d="m 1216.9,659.2 c -3,11.2 -8.9,26.2 -16.4,34.6 l -23.9,26.7 -12.2,-33.4 a 282.2,282.2 0 0 0 -12.3,-28.9 c -28,4.1 -57.5,9.6 -91.5,12.9 -41.8,4.1 -93.7,-22 -152.3,-51.3 a 210.6,210.6 0 0 0 -12.2,19.3 L 878.5,670 859.4,639.9 c -6.8,-10.9 -8.8,-27.8 -9.3,-32.8 A 82.7,82.7 0 0 1 850,591.4 C 783,560.7 709.7,536 634,550 c 55.5,-65.9 175.4,-26 259.6,14.2 73.2,47.9 122.1,64 160.9,65.5 -0.4,-6.2 -1,-13 -2,-20.3 l -4.9,-35.1 33.7,12.7 c 12.1,4.6 24.1,17 27.4,20.6 a 91.2,91.2 0 0 1 9.7,12.3 c 58.9,-18.4 113,-50.1 254.1,16.6 -17.3,-35.6 -62.5,-51.9 -95.3,-65.8 3.9,-0.6 24.3,-5 36.9,-7 -24.5,-44.1 -45.5,-23.1 -72.5,-23.6 5.6,7.1 9.2,8.4 16,22.8 -17.2,-15.8 -63.4,-21 -104.5,-24.6 -58.5,11 -76.6,-34.1 -2.6,-31 -36.6,-23.5 -78.5,-24.4 -64,13.7 -21.9,-9.1 -30.8,-35.8 -9.2,-56.5 -15.3,-5.7 -55.8,-43.4 -76.7,-65.1 -28.2,-4.2 -110.7,-52 -155.7,-83 8.2,13.2 12,23.9 17.1,37.2 -27.2,-14.2 -146.7,-49.8 -184.2,-54.3 8.3,20.6 14.1,34 15.2,48.3 -26.9,-21.7 -185.8,-39.9 -214.4,-37.5 22.8,20.8 46.9,56.6 56.7,92.4 -12.7,-8.7 -75.4,-37.8 -96.7,-36.6 -21.3,1.2 -39.5,3.8 -64.1,5.2 64.1,38.5 76.6,43.7 229,89.5 -14,4.2 -45.8,10.4 -88,16.3 21.3,17.4 54.2,31.7 73.5,37.9 -18.5,6.2 -53.1,11.2 -90.4,9.4 24.8,33.2 66.1,51.4 94.1,66 -106.6,217.4 170.8,187.7 201.8,185.5 -14.2,-21.8 -17.5,-28.5 -21.9,-59.3 243.4,162.8 353.1,1.4 480.2,88.6 54.9,-53.1 65.2,-92.9 66.5,-126.3 -37.7,-17.9 -69.9,-24.5 -101,-25.4 -0.4,1.9 -0.9,3.9 -1.4,5.9 z m -297.3,-200 c 17.2,-6.3 -23.8,-60.8 -36.7,-75.1 91.7,32.3 96.9,91.5 69.1,108.6 17,11.4 17.4,23.7 20.4,35.4 -32.4,-12.3 -62.6,-35.3 -83.2,-21.9 -19,20.1 -129.1,19.4 -146.4,-71.1 8.2,6.7 14.3,14.3 27.9,20.9 -5.5,-13.1 -16.3,-32 -6.4,-47.2 -5.6,-10.5 -54.2,-24.3 -80.9,15.1 -11.3,-142.8 187.6,-10.5 236.2,35.3 z"
       fill="#fada0e"
       fill-rule="evenodd"
       id="path841" />
    <path
       class="cls-4"
       d="m 1161.8,632.5 c 8,-7.5 24.1,-9.6 34.7,-9 7.7,14.5 -4.3,47.8 -12,56.5 -7.8,-21.2 -15.2,-36 -22.7,-47.5 z m -86.3,19 c 9.1,2.6 22,-2.1 29.8,-6.8 0,-14 -22.4,-34.5 -31.7,-38.1 2.6,19.1 2.9,33.2 1.9,44.9 z M 903.4,591.9 c -5.6,-7.5 -18.8,-11.4 -27.9,-12.3 -8.6,11.2 -3.3,40.8 2,49.2 9.6,-16.8 18,-28.2 25.9,-36.9 z m -106.2,-169 c 13.9,7.8 49.7,29.3 65.8,42.7 -47,31.3 -71,-28.8 -65.8,-42.7 z"
       id="path843" />
    <path
       d="m 160.6,1049.4 v 0.3 a 25.9,25.9 0 0 1 6.4,2.5 9.8,9.8 0 0 1 3.7,4.5 19.1,19.1 0 0 1 1.4,8 c 0,5.6 -1.6,9.7 -4.6,12.5 -3,2.8 -7.8,4.1 -14.4,4.1 h -33.6 v -62.2 h 33.8 c 5.9,0 10.5,1.3 13.7,3.8 3.2,2.5 4.9,6.5 4.9,11.8 0,5.3 -0.9,7.8 -2.7,10 -1.8,2.2 -4.7,3.8 -8.6,4.7 z m -10.4,-14.1 a 2.2,2.2 0 0 0 -1.5,-1.3 15.2,15.2 0 0 0 -3.7,-0.3 h -4.4 v 10 h 4.4 a 15.8,15.8 0 0 0 3.7,-0.3 2.4,2.4 0 0 0 1.5,-1.3 13.5,13.5 0 0 0 0.3,-3.4 13,13 0 0 0 -0.3,-3.4 z m 0,22.6 a 2.8,2.8 0 0 0 -1.5,-1.5 15.8,15.8 0 0 0 -3.7,-0.3 h -4.4 v 10.6 h 4.4 a 15.2,15.2 0 0 0 3.7,-0.3 2.4,2.4 0 0 0 1.5,-1.3 21.7,21.7 0 0 0 0,-7.2 z m 149.4,23.4 -2.3,-9.3 H 279 l -2.2,9.3 h -20.9 l 17.6,-62.2 h 29.9 l 17.5,62.2 z m -11.1,-45.2 h -0.9 l -5.1,21.4 h 11.2 z m 163.2,22 8.6,23.2 h -22.1 l -6.3,-20.7 h -4.3 v 20.7 h -21.5 v -62.2 h 33.2 c 5.6,0 9.7,0.7 12.6,2.2 a 11,11 0 0 1 5.6,6.6 c 1,2.9 1.4,6.9 1.4,12 a 39,39 0 0 1 -1.4,11.5 12.2,12.2 0 0 1 -5.8,6.7 z m -14.6,-22.3 a 1.9,1.9 0 0 0 -1.4,-1.6 19.6,19.6 0 0 0 -4.4,-0.4 h -3.7 v 12.8 h 3.8 a 12.4,12.4 0 0 0 4,-0.4 2.3,2.3 0 0 0 1.6,-1.6 14.2,14.2 0 0 0 0.4,-4.3 22,22 0 0 0 -0.3,-4.5 z m 134.9,30.1 c 1.4,0.7 4.1,1 7.9,1 a 95.4,95.4 0 0 0 12.4,-0.7 v 14.4 c -2,0.4 -4.7,0.7 -8,1 -3.3,0.3 -6.5,0.4 -9.4,0.4 -8.2,0 -14.3,-1 -18.1,-2.8 a 14.4,14.4 0 0 1 -7.7,-9.4 c -1.2,-4.3 -1.8,-10.8 -1.8,-19.6 0,-8.8 0.6,-15.4 1.8,-19.7 a 14.4,14.4 0 0 1 7.7,-9.3 c 3.8,-1.9 9.9,-2.8 18.1,-2.8 2.9,0 5.9,0.2 9.1,0.5 a 62.6,62.6 0 0 1 8,1.2 v 14.1 c -6.6,-0.5 -10.7,-0.7 -12.1,-0.7 -3.8,0 -6.5,0.3 -7.9,1 -1.4,0.7 -2.3,2 -2.6,4 a 137.1,137.1 0 0 0 0,23.4 c 0.3,2 1.2,3.4 2.6,4 z m 155.5,0.3 v 15.1 h -46.3 v -62.2 h 46.3 v 15.1 h -24.9 v 8.3 h 20.6 v 14.7 h -20.6 v 9 z m 90,15.1 v -62.2 H 839 v 46.3 h 21.2 v 15.9 z m 183.9,-10.8 a 12.2,12.2 0 0 1 -7.1,8.7 c -3.9,1.9 -10.4,2.8 -19.6,2.8 -9.2,0 -15.7,-0.9 -19.6,-2.8 a 12.2,12.2 0 0 1 -7.1,-8.7 c -0.9,-4 -1.4,-10.8 -1.4,-20.3 0,-9.5 0.5,-16.3 1.4,-20.3 a 12.6,12.6 0 0 1 7.1,-8.8 c 3.9,-1.8 10.4,-2.7 19.6,-2.7 9.2,0 15.7,0.9 19.6,2.7 a 12.6,12.6 0 0 1 7.1,8.8 c 0.9,4 1.4,10.8 1.4,20.3 0,9.5 -0.5,16.3 -1.4,20.3 z m -20.5,-32.4 c -0.2,-2 -0.7,-3.3 -1.5,-3.8 -0.8,-0.5 -2.4,-0.8 -4.7,-0.8 -2.3,0 -3.9,0.2 -4.7,0.8 -0.8,0.6 -1.3,1.8 -1.5,3.8 -0.2,2 -0.3,6 -0.3,12.1 0,6.1 0.1,10.1 0.3,12.1 0.2,2 0.7,3.3 1.5,3.8 0.8,0.5 2.3,0.8 4.7,0.8 a 9.8,9.8 0 0 0 4.7,-0.8 c 0.8,-0.5 1.3,-1.8 1.5,-3.8 0.2,-2 0.3,-6.1 0.3,-12.1 0,-6 -0.1,-10.1 -0.3,-12.1 z m 147,43.2 -14.6,-29 h -0.5 v 29 h -20.5 v -62.2 h 21.9 l 12.4,24 h 0.6 v -24 h 20.5 v 62.2 z m 148.6,0 -2.3,-9.3 h -18.3 l -2.2,9.3 h -20.8 l 17.5,-62.2 h 29.9 l 17.6,62.2 z m -11.1,-45.2 h -0.8 l -5.2,21.4 h 11.2 z"
       fill="#a5262a"
       id="path845" />
    <path
       class="cls-6"
       d="m 240.1,1195.3 v 145.3 c 0,35.8 -13.9,50.2 -48.6,50.2 h -63.4 v -199.1 h -6.4 l 4.7,-46.6 h 65.1 c 34.7,0 48.6,14.3 48.6,50.2 z M 174,1344.1 h 20.2 V 1191.7 H 174 Z m 236.3,-148.8 v 80 c 0,17.9 -3.4,30.5 -11.1,38.6 l 20.9,76.9 h -45.9 l -17.5,-65.3 h -9.1 v 65.3 h -45.8 v -199.1 h -6.5 l 4.8,-46.6 h 63 c 33.7,0.3 47.2,14.7 47.2,50.2 z m -62.7,83.5 h 16.9 v -87.1 h -16.9 z m 149,-87.1 h -7.1 l 4.8,-46.6 h 78.5 l 34.7,245.7 H 562 l -4.7,-35.1 h -38.4 l -4.8,35.1 h -45.5 z m 54.3,117.3 -12.8,-93 -12.8,93 z m 176,-118.7 h -23.6 v 155.2 h 23.6 v -54.1 h -13.5 l 2.7,-46.6 h 56.6 v 97.2 c 0,35.8 -13.8,50.2 -48.5,50.2 H 706 c -34.8,0 -48.6,-14.4 -48.6,-50.2 v -148.1 c 0,-35.9 13.8,-50.2 48.6,-50.2 h 18.2 c 34.7,0 48.5,14.3 48.5,50.2 v 34.7 l -45.8,-5.3 z m 151.3,-46.6 h 14.9 c 34.7,0 48.5,14.3 48.5,50.2 V 1342 c 0,35.8 -13.8,50.2 -48.5,50.2 h -14.9 c -34.7,0 -48.5,-14.4 -48.5,-50.2 v -148.1 c 0,-35.9 13.8,-50.2 48.5,-50.2 z m -2.7,201.8 h 20.3 v -155.2 h -20.3 z m 259.6,-200.4 v 245.7 h -45.8 l -38.5,-133.4 v 133.4 H 1005 v -199.1 h -6.4 l 4.7,-46.6 h 47.5 l 38.5,133.4 v -133.4 z m 99.1,248.5 c -31.3,-1.4 -43.8,-16.2 -43.8,-50.2 v -29.8 h 45.9 v 33.3 h 13.4 v -48.4 l -10.7,-5 -27.4,-12.2 c -16.8,-8.1 -21.2,-14.4 -21.2,-31.6 v -57.3 c 0,-34 12.5,-48.7 43.8,-50.2 h 17.6 c 31.3,1.5 43.8,16.2 43.8,50.2 v 43.9 l -45.9,-5.2 v -42.2 h -13.4 v 53.4 l 10.7,4.9 27.4,12.3 c 16.8,8.1 21.2,14.4 21.2,31.6 v 52.3 c 0,34 -12.5,48.8 -43.8,50.2 z"
       id="path847" />
  </g>
</svg>
